<mxfile host="app.diagrams.net" agent="Mozilla/5.0 (Macintosh; Intel Mac OS X 10_15_7) AppleWebKit/537.36 (KHTML, like Gecko) Chrome/138.0.0.0 Safari/537.36 Edg/138.0.0.0" version="28.0.7">
  <diagram name="第 1 页" id="dQ3PVyr9hP2LvnTy9o56">
    <mxGraphModel dx="751" dy="498" grid="1" gridSize="10" guides="1" tooltips="1" connect="1" arrows="1" fold="1" page="1" pageScale="1" pageWidth="850" pageHeight="1100" math="1" shadow="0">
      <root>
        <mxCell id="0" />
        <mxCell id="1" parent="0" />
        <mxCell id="3VNo9ssCTIXEBzHkCczm-1" value="" style="endArrow=classic;html=1;rounded=0;strokeWidth=2;" parent="1" edge="1">
          <mxGeometry width="50" height="50" relative="1" as="geometry">
            <mxPoint x="480" y="230" as="sourcePoint" />
            <mxPoint x="800" y="230" as="targetPoint" />
          </mxGeometry>
        </mxCell>
        <mxCell id="3VNo9ssCTIXEBzHkCczm-2" value="" style="endArrow=classic;html=1;rounded=0;strokeWidth=2;" parent="1" edge="1">
          <mxGeometry width="50" height="50" relative="1" as="geometry">
            <mxPoint x="520" y="270" as="sourcePoint" />
            <mxPoint x="520" y="60" as="targetPoint" />
          </mxGeometry>
        </mxCell>
        <mxCell id="3VNo9ssCTIXEBzHkCczm-3" value="" style="endArrow=classic;html=1;rounded=0;entryX=0.5;entryY=0.667;entryDx=0;entryDy=0;entryPerimeter=0;" parent="1" target="3VNo9ssCTIXEBzHkCczm-9" edge="1">
          <mxGeometry width="50" height="50" relative="1" as="geometry">
            <mxPoint x="520" y="230" as="sourcePoint" />
            <mxPoint x="620" y="60" as="targetPoint" />
          </mxGeometry>
        </mxCell>
        <mxCell id="3VNo9ssCTIXEBzHkCczm-4" value="" style="endArrow=classic;html=1;rounded=0;entryX=0.5;entryY=0.333;entryDx=0;entryDy=0;entryPerimeter=0;" parent="1" edge="1" target="3VNo9ssCTIXEBzHkCczm-8">
          <mxGeometry width="50" height="50" relative="1" as="geometry">
            <mxPoint x="520" y="230" as="sourcePoint" />
            <mxPoint x="600" y="200" as="targetPoint" />
          </mxGeometry>
        </mxCell>
        <mxCell id="3VNo9ssCTIXEBzHkCczm-5" value="" style="endArrow=classic;html=1;rounded=0;dashed=1;dashPattern=8 8;entryX=0.5;entryY=0.667;entryDx=0;entryDy=0;entryPerimeter=0;" parent="1" target="3VNo9ssCTIXEBzHkCczm-9" edge="1">
          <mxGeometry width="50" height="50" relative="1" as="geometry">
            <mxPoint x="670" y="210" as="sourcePoint" />
            <mxPoint x="680" y="70" as="targetPoint" />
          </mxGeometry>
        </mxCell>
        <mxCell id="3VNo9ssCTIXEBzHkCczm-7" value="&lt;font face=&quot;Times New Roman&quot; style=&quot;font-size: 16px;&quot;&gt;\[O\]&lt;/font&gt;" style="text;html=1;align=center;verticalAlign=middle;whiteSpace=wrap;rounded=0;" parent="1" vertex="1">
          <mxGeometry x="480" y="225" width="60" height="30" as="geometry" />
        </mxCell>
        <mxCell id="3VNo9ssCTIXEBzHkCczm-8" value="&lt;font face=&quot;Times New Roman&quot; style=&quot;font-size: 16px;&quot;&gt;\[A\]&lt;/font&gt;" style="text;html=1;align=center;verticalAlign=middle;whiteSpace=wrap;rounded=0;" parent="1" vertex="1">
          <mxGeometry x="640" y="200" width="60" height="30" as="geometry" />
        </mxCell>
        <mxCell id="3VNo9ssCTIXEBzHkCczm-9" value="&lt;font style=&quot;font-size: 16px;&quot;&gt;\[C\]&lt;/font&gt;" style="text;html=1;align=center;verticalAlign=middle;whiteSpace=wrap;rounded=0;" parent="1" vertex="1">
          <mxGeometry x="730" y="70" width="60" height="30" as="geometry" />
        </mxCell>
        <mxCell id="3VNo9ssCTIXEBzHkCczm-10" value="&lt;font face=&quot;Times New Roman&quot; style=&quot;font-size: 16px;&quot;&gt;\[I\]&lt;/font&gt;" style="text;html=1;align=center;verticalAlign=middle;whiteSpace=wrap;rounded=0;" parent="1" vertex="1">
          <mxGeometry x="770" y="225" width="60" height="30" as="geometry" />
        </mxCell>
        <mxCell id="3VNo9ssCTIXEBzHkCczm-11" value="&lt;font face=&quot;Times New Roman&quot; style=&quot;font-size: 16px;&quot;&gt;\[Q\]&lt;/font&gt;" style="text;html=1;align=center;verticalAlign=middle;whiteSpace=wrap;rounded=0;" parent="1" vertex="1">
          <mxGeometry x="480" y="40" width="60" height="30" as="geometry" />
        </mxCell>
        <mxCell id="ErhWI1c0VmUu2In4zWGr-2" value="" style="endArrow=classic;html=1;rounded=0;entryX=0.5;entryY=0.667;entryDx=0;entryDy=0;entryPerimeter=0;" parent="1" target="ErhWI1c0VmUu2In4zWGr-3" edge="1">
          <mxGeometry width="50" height="50" relative="1" as="geometry">
            <mxPoint x="520" y="230" as="sourcePoint" />
            <mxPoint x="630" y="160" as="targetPoint" />
          </mxGeometry>
        </mxCell>
        <mxCell id="ErhWI1c0VmUu2In4zWGr-3" value="&lt;font face=&quot;Times New Roman&quot; style=&quot;font-size: 16px;&quot;&gt;\[B\]&lt;/font&gt;" style="text;html=1;align=center;verticalAlign=middle;whiteSpace=wrap;rounded=0;" parent="1" vertex="1">
          <mxGeometry x="650" y="160" width="60" height="30" as="geometry" />
        </mxCell>
        <mxCell id="ErhWI1c0VmUu2In4zWGr-4" value="" style="endArrow=classic;html=1;rounded=0;dashed=1;dashPattern=8 8;entryX=0.5;entryY=0.667;entryDx=0;entryDy=0;entryPerimeter=0;exitX=0.5;exitY=0.667;exitDx=0;exitDy=0;exitPerimeter=0;" parent="1" source="ErhWI1c0VmUu2In4zWGr-3" target="3VNo9ssCTIXEBzHkCczm-9" edge="1">
          <mxGeometry width="50" height="50" relative="1" as="geometry">
            <mxPoint x="660" y="200" as="sourcePoint" />
            <mxPoint x="684" y="100" as="targetPoint" />
          </mxGeometry>
        </mxCell>
        <mxCell id="ErhWI1c0VmUu2In4zWGr-6" value="" style="endArrow=classic;html=1;rounded=0;dashed=1;dashPattern=8 8;exitX=0.5;exitY=0.333;exitDx=0;exitDy=0;exitPerimeter=0;entryX=0.5;entryY=0.667;entryDx=0;entryDy=0;entryPerimeter=0;" parent="1" source="3VNo9ssCTIXEBzHkCczm-8" target="ErhWI1c0VmUu2In4zWGr-3" edge="1">
          <mxGeometry width="50" height="50" relative="1" as="geometry">
            <mxPoint x="640" y="300" as="sourcePoint" />
            <mxPoint x="630" y="160" as="targetPoint" />
          </mxGeometry>
        </mxCell>
      </root>
    </mxGraphModel>
  </diagram>
</mxfile>
